<?xml version="1.0" encoding="UTF-8" standalone="no"?>
<!DOCTYPE svg PUBLIC "-//W3C//DTD SVG 1.1//EN" "http://www.w3.org/Graphics/SVG/1.1/DTD/svg11.dtd">
<svg width="100%" height="100%" viewBox="0 0 135 133" version="1.1" xmlns="http://www.w3.org/2000/svg" xmlns:xlink="http://www.w3.org/1999/xlink" xml:space="preserve" xmlns:serif="http://www.serif.com/">
    <g transform="matrix(1,0,0,1,-0.000484954,-0.000424526)">
        <g transform="matrix(1,0,0,1,0.00223215,0.00223922)">
            <g transform="matrix(-0.960305,-1.17603e-16,1.17603e-16,-0.960305,132.89,130.254)">
                <path d="M46.274,0.573C32.467,0.573 34.263,15.876 34.263,25.179C34.263,35.227 34.261,45.272 34.261,55.321C34.261,55.942 11.3,55.193 8.691,55.515C0.621,55.515 -2.382,67.589 2.811,72.777L7.323,77.286L53.525,123.446C59.351,129.266 66.294,137.581 75.355,131.333C80.465,127.806 84.721,122.217 89.065,117.86L131.638,75.148C137.846,68.92 139.224,55.515 127.149,55.515L112.692,55.515C110.179,55.515 104.592,56.994 104.592,53.958L104.592,23.783C104.592,14.681 105.866,0.573 92.582,0.573C77.373,-0.716 61.549,0.573 46.274,0.573" />
            </g>
        </g>
    </g>
</svg>
